<?xml version="1.0" encoding="utf-8"?>
<!-- Generator: Adobe Illustrator 16.0.4, SVG Export Plug-In . SVG Version: 6.00 Build 0)  -->
<!DOCTYPE svg PUBLIC "-//W3C//DTD SVG 1.1//EN" "http://www.w3.org/Graphics/SVG/1.1/DTD/svg11.dtd">
<svg version="1.1" id="Ebene_1" xmlns="http://www.w3.org/2000/svg" xmlns:xlink="http://www.w3.org/1999/xlink" x="0px" y="0px"
	 width="600px" height="200px" viewBox="0 0 600 200" enable-background="new 0 0 600 200" xml:space="preserve">
<g>
	<path fill="#FFFFFF" d="M41.25,122.5V10h22.5v101.25l22.5,11.25l22.5-11.25V10h22.5v112.5l-45,22.5L41.25,122.5z"/>
	<path fill="#FFFFFF" d="M153.75,145v-45c0-12.42,4.395-23.027,13.184-31.816C175.604,59.395,186.209,55,198.75,55
		c12.42,0,23.027,4.455,31.816,13.359C239.355,77.033,243.75,87.58,243.75,100v22.5h-67.5V145H153.75z M221.25,100
		c0-6.092-2.228-11.365-6.68-15.82c-4.455-4.452-9.729-6.68-15.82-6.68c-6.213,0-11.544,2.228-15.996,6.68
		c-4.337,4.455-6.504,9.729-6.504,15.82H221.25z"/>
	<path fill="#FFFFFF" d="M266.25,145V55h22.5v5.977c6.68-3.982,14.178-5.977,22.5-5.977v22.5c-6.213,0-11.544,2.228-15.996,6.68
		c-4.337,4.455-6.504,9.729-6.504,15.82v45H266.25z"/>
	<path fill="#FFFFFF" d="M345,145V55h22.5v90H345z"/>
	<path fill="#FFFFFF" d="M401.25,145V55c0-12.42,4.395-23.027,13.184-31.816C423.104,14.395,433.709,10,446.25,10h22.5v22.5h-22.5
		c-6.213,0-11.544,2.228-15.996,6.68c-4.337,4.455-6.504,9.729-6.504,15.82h22.5v22.5h-22.5V145H401.25z"/>
	<path fill="#FFFFFF" d="M491.25,190v-22.5h22.5c6.092,0,11.365-2.228,15.82-6.68c4.452-4.455,6.68-9.729,6.68-15.82v-5.801
		c-6.798,3.867-14.299,5.801-22.5,5.801c-12.541,0-23.203-4.395-31.992-13.184c-8.674-8.671-13.008-19.275-13.008-31.816V55h22.5v45
		c0,6.213,2.167,11.544,6.504,15.996c4.452,4.337,9.783,6.504,15.996,6.504c6.092,0,11.365-2.167,15.82-6.504
		c4.452-4.452,6.68-9.783,6.68-15.996V55h22.5v90c0,12.42-4.455,23.027-13.359,31.816C536.717,185.605,526.17,190,513.75,190H491.25
		z"/>
</g>
</svg>
